<?xml version="1.0" encoding="iso-8859-1"?>
<!-- Generator: Adobe Illustrator 18.0.0, SVG Export Plug-In . SVG Version: 6.00 Build 0)  -->
<!DOCTYPE svg PUBLIC "-//W3C//DTD SVG 1.1//EN" "http://www.w3.org/Graphics/SVG/1.1/DTD/svg11.dtd">
<svg version="1.1" id="Capa_1" xmlns="http://www.w3.org/2000/svg" xmlns:xlink="http://www.w3.org/1999/xlink" x="0px" y="0px"
	 viewBox="0 0 453.818 453.818" style="enable-background:new 0 0 453.818 453.818;" xml:space="preserve">
<path d="M438.818,96.071H15c-8.284,0-15,6.716-15,15v231.676c0,8.284,6.716,15,15,15h423.818c8.284,0,15-6.716,15-15V111.071
	C453.818,102.787,447.103,96.071,438.818,96.071z M30,133.089l140.736,93.819L30,320.733V133.089z M55.533,327.747l133.231-88.821
	l32.598,21.731c1.68,1.12,3.613,1.679,5.547,1.679s3.867-0.56,5.547-1.679l32.601-21.733l133.233,88.822H55.533z M226.909,240.319
	L55.53,126.071h342.759L226.909,240.319z M283.085,226.907l140.734-93.818v187.64L283.085,226.907z"/>
<g>
</g>
<g>
</g>
<g>
</g>
<g>
</g>
<g>
</g>
<g>
</g>
<g>
</g>
<g>
</g>
<g>
</g>
<g>
</g>
<g>
</g>
<g>
</g>
<g>
</g>
<g>
</g>
<g>
</g>
</svg>
